<?xml version="1.0" standalone="no"?><!DOCTYPE svg PUBLIC "-//W3C//DTD SVG 1.1//EN" "http://www.w3.org/Graphics/SVG/1.1/DTD/svg11.dtd"><svg t="1769955477062" class="icon" viewBox="0 0 1156 1024" version="1.1" xmlns="http://www.w3.org/2000/svg" p-id="5857" xmlns:xlink="http://www.w3.org/1999/xlink" width="225.78125" height="200"><path d="M1012.474893 123.075811C921.700218 45.329519 794.615674 0.462546 646.870737 0.462546 261.839645 0.462546-0.038546 291.75096-0.038546 291.75096l73.814651 114.827072s40.819694 3.353459 19.195663-64.255364C111.627795 307.747346 159.925318 246.459986 231.273056 192.727546v770.910186c-30.759316 8.518558-83.181209 33.187684-55.466988 60.362268h212.000301C415.790409 996.555597 373.775804 971.346834 346.909584 963.637732v-154.182037s143.273658 38.391327 299.961153 38.391328c137.684559 0 262.918919-40.164421 356.083415-112.70707 93.164496-72.080102 153.218399-179.776255 152.87149-302.852066 0.269819-120.840172-52.498984-231.735602-143.350749-309.212076z m-112.36016 551.701875c-64.409546 62.366634-158.113679 101.79869-266.195287 101.721599-120.570353 0.077091-222.060679-22.818942-289.052774-55.158624 0 0 2.042912-37.157871 2.042912-181.703531 0-156.379131-2.042912-392.123466-2.042912-392.123466 73.506286-51.226982 192.766092-82.795754 289.052774-82.564481 117.024166 0.077091 208.91666 43.402243 271.013476 109.199428C966.952646 240.292705 1001.874878 321.816457 1002.183242 424.000602c-0.385455 99.563051-37.620417 187.909358-102.068509 250.777084z" p-id="5858" fill="#ffffff"></path></svg>